<svg width="20" height="21" viewBox="0 0 20 21" fill="none" xmlns="http://www.w3.org/2000/svg">
<path d="M17.8947 9.78245H20C20 4.20583 15.9232 0 10.5159 0V2.17412C14.7916 2.17412 17.8947 5.37333 17.8947 9.78245Z" fill="#2F3045"/>
<path d="M10.5265 6.52173C12.7401 6.52173 13.6843 7.49669 13.6843 9.78247H15.7895C15.7895 6.27718 13.9211 4.3479 10.5265 4.3479V6.52173ZM14.1285 12.4378C13.9262 12.248 13.6605 12.1467 13.3873 12.1555C13.1141 12.1642 12.8548 12.2822 12.6643 12.4845L10.1454 15.1594C9.5391 15.0399 8.32018 14.6475 7.06546 13.3552C5.81074 12.0585 5.43074 10.7966 5.31811 10.1749L7.9065 7.57278C8.10272 7.37618 8.21716 7.10847 8.22561 6.82629C8.23406 6.54411 8.13585 6.26961 7.95176 6.06088L4.06234 1.64475C3.87818 1.43536 3.62222 1.30835 3.34883 1.2907C3.07544 1.27304 2.80615 1.36613 2.59815 1.55019L0.313977 3.57293C0.131991 3.76153 0.0233697 4.01254 0.00871773 4.27834C-0.00707151 4.55007 -0.30812 10.9868 4.52549 15.9801C8.74227 20.3332 14.0243 20.6516 15.479 20.6516C15.6916 20.6516 15.8222 20.6451 15.8569 20.6429C16.1143 20.628 16.3572 20.5154 16.539 20.3266L18.4969 17.9669C18.6752 17.7523 18.7656 17.4743 18.7487 17.192C18.7318 16.9097 18.609 16.6454 18.4063 16.455L14.1285 12.4378Z" fill="#2F3045"/>
</svg>
